<svg width="30" height="30" viewBox="0 0 30 30" fill="none" xmlns="http://www.w3.org/2000/svg">
<path d="M22.9102 14.9599C22.9102 15.3299 22.7902 15.6399 22.5402 15.8799L18.7002 19.6299C18.4802 19.8799 18.1902 20.0099 17.8502 20.0099C17.5002 20.0099 17.2002 19.8899 16.9602 19.6599C16.7202 19.4299 16.5902 19.1299 16.5902 18.7799C16.5902 18.4299 16.7102 18.1299 16.9602 17.8899L18.6002 16.2499H8.30015C7.95015 16.2499 7.66016 16.1299 7.43015 15.8799C7.20016 15.6299 7.09015 15.3299 7.09015 14.9799C7.09015 14.6299 7.20016 14.3299 7.43015 14.0799C7.66016 13.8299 7.95015 13.6999 8.30015 13.6899H18.6002L16.9602 12.0299C16.7202 11.7899 16.5902 11.4999 16.5902 11.1699C16.5902 10.8199 16.7102 10.5199 16.9602 10.2799C17.2102 10.0399 17.5002 9.8999 17.8602 9.8999C18.1802 9.8999 18.4702 10.0399 18.7102 10.3099L22.5502 14.0599C22.7902 14.3099 22.9102 14.5999 22.9102 14.9599Z" fill="white"/>
</svg>
