<svg width="26" height="26" viewBox="0 0 26 26" fill="none" xmlns="http://www.w3.org/2000/svg">
<path fill-rule="evenodd" clip-rule="evenodd" d="M14.3869 13.5742C14.539 13.4218 14.6245 13.2153 14.6245 13C14.6245 12.7847 14.539 12.5782 14.3869 12.4258L6.26189 4.30083C6.18751 4.22101 6.09781 4.15698 5.99814 4.11257C5.89848 4.06816 5.79089 4.04429 5.68179 4.04236C5.5727 4.04044 5.46433 4.0605 5.36316 4.10137C5.26199 4.14223 5.17009 4.20306 5.09294 4.28021C5.01578 4.35736 4.95496 4.44927 4.91409 4.55044C4.87323 4.65161 4.85316 4.75997 4.85509 4.86907C4.85701 4.97816 4.88089 5.08575 4.9253 5.18542C4.9697 5.28509 5.03373 5.37479 5.11356 5.44917L12.6644 13L5.11356 20.5508C4.97004 20.7049 4.89191 20.9086 4.89562 21.1191C4.89933 21.3296 4.98461 21.5304 5.13347 21.6793C5.28233 21.8281 5.48317 21.9134 5.69366 21.9171C5.90415 21.9208 6.10787 21.8427 6.26189 21.6992L14.3869 13.5742Z" fill="white"/>
<path fill-rule="evenodd" clip-rule="evenodd" d="M20.8869 13.5742C21.039 13.4218 21.1245 13.2153 21.1245 13C21.1245 12.7847 21.039 12.5782 20.8869 12.4258L12.7619 4.30083C12.6875 4.22101 12.5978 4.15698 12.4981 4.11257C12.3985 4.06816 12.2909 4.04429 12.1818 4.04236C12.0727 4.04044 11.9643 4.0605 11.8632 4.10137C11.762 4.14223 11.6701 4.20306 11.5929 4.28021C11.5158 4.35736 11.455 4.44927 11.4141 4.55044C11.3732 4.65161 11.3532 4.75997 11.3551 4.86907C11.357 4.97816 11.3809 5.08575 11.4253 5.18542C11.4697 5.28509 11.5337 5.37479 11.6136 5.44917L19.1644 13L11.6136 20.5508C11.47 20.7049 11.3919 20.9086 11.3956 21.1191C11.3993 21.3296 11.4846 21.5304 11.6335 21.6793C11.7823 21.8281 11.9832 21.9134 12.1937 21.9171C12.4042 21.9208 12.6079 21.8427 12.7619 21.6992L20.8869 13.5742Z" fill="white"/>
</svg>
