<svg width="1084" height="322" viewBox="0 0 1084 322" fill="none" xmlns="http://www.w3.org/2000/svg">
<g opacity="0.4" filter="url(#filter0_f_1050_31)">
<g clip-path="url(#paint0_diamond_1050_31_clip_path)" data-figma-skip-parse="true"><g transform="matrix(0.1675 0.2555 -0.752789 0.493512 536.5 69.9999)"><rect x="0" y="0" width="1683.28" height="637.743" fill="url(#paint0_diamond_1050_31)" opacity="0.26" shape-rendering="crispEdges"/><rect x="0" y="0" width="1683.28" height="637.743" transform="scale(1 -1)" fill="url(#paint0_diamond_1050_31)" opacity="0.26" shape-rendering="crispEdges"/><rect x="0" y="0" width="1683.28" height="637.743" transform="scale(-1 1)" fill="url(#paint0_diamond_1050_31)" opacity="0.26" shape-rendering="crispEdges"/><rect x="0" y="0" width="1683.28" height="637.743" transform="scale(-1)" fill="url(#paint0_diamond_1050_31)" opacity="0.26" shape-rendering="crispEdges"/></g></g><path d="M953 115C817 -36.5 389.757 280.893 74.5 322.437L235 322.437C726.985 322.437 805.5 322.436 1084.5 322.437L953 115Z" data-figma-gradient-fill="{&#34;type&#34;:&#34;GRADIENT_DIAMOND&#34;,&#34;stops&#34;:[{&#34;color&#34;:{&#34;r&#34;:1.0,&#34;g&#34;:1.0,&#34;b&#34;:1.0,&#34;a&#34;:1.0},&#34;position&#34;:0.0},{&#34;color&#34;:{&#34;r&#34;:0.80784314870834351,&#34;g&#34;:0.80784314870834351,&#34;b&#34;:0.80000001192092896,&#34;a&#34;:1.0},&#34;position&#34;:1.0}],&#34;stopsVar&#34;:[{&#34;color&#34;:{&#34;r&#34;:1.0,&#34;g&#34;:1.0,&#34;b&#34;:1.0,&#34;a&#34;:1.0},&#34;position&#34;:0.0},{&#34;color&#34;:{&#34;r&#34;:0.80784314870834351,&#34;g&#34;:0.80784314870834351,&#34;b&#34;:0.80000001192092896,&#34;a&#34;:1.0},&#34;position&#34;:1.0}],&#34;transform&#34;:{&#34;m00&#34;:334.99996948242188,&#34;m01&#34;:-1505.5789794921875,&#34;m02&#34;:1121.789550781250,&#34;m10&#34;:511.00006103515625,&#34;m11&#34;:987.02331542968750,&#34;m12&#34;:-679.01177978515625},&#34;opacity&#34;:0.25999999046325684,&#34;blendMode&#34;:&#34;NORMAL&#34;,&#34;visible&#34;:true}"/>
</g>
<defs>
<filter id="filter0_f_1050_31" x="0.5" y="0.317871" width="1158" height="396.119" filterUnits="userSpaceOnUse" color-interpolation-filters="sRGB">
<feFlood flood-opacity="0" result="BackgroundImageFix"/>
<feBlend mode="normal" in="SourceGraphic" in2="BackgroundImageFix" result="shape"/>
<feGaussianBlur stdDeviation="37" result="effect1_foregroundBlur_1050_31"/>
</filter>
<clipPath id="paint0_diamond_1050_31_clip_path"><path d="M953 115C817 -36.5 389.757 280.893 74.5 322.437L235 322.437C726.985 322.437 805.5 322.436 1084.5 322.437L953 115Z"/></clipPath><linearGradient id="paint0_diamond_1050_31" x1="0" y1="0" x2="500" y2="500" gradientUnits="userSpaceOnUse">
<stop stop-color="white"/>
<stop offset="1" stop-color="#CECECC"/>
</linearGradient>
</defs>
</svg>
