<svg width="60" height="60" viewBox="0 0 60 60" fill="none" xmlns="http://www.w3.org/2000/svg">
<path d="M30 6.09375C25.2718 6.09375 20.6498 7.49583 16.7184 10.1227C12.787 12.7495 9.72292 16.4832 7.91352 20.8515C6.10411 25.2198 5.63068 30.0265 6.55311 34.6639C7.47554 39.3012 9.75239 43.5609 13.0957 46.9043C16.4391 50.2476 20.6988 52.5245 25.3361 53.4469C29.9735 54.3693 34.7802 53.8959 39.1485 52.0865C43.5168 50.2771 47.2505 47.213 49.8773 43.2816C52.5042 39.3502 53.9063 34.7282 53.9063 30C53.8988 23.662 51.3777 17.5856 46.8961 13.1039C42.4144 8.62227 36.3381 6.10119 30 6.09375ZM30 51.0937C25.8281 51.0937 21.7498 49.8566 18.281 47.5388C14.8121 45.221 12.1085 41.9266 10.5119 38.0722C8.91539 34.2178 8.49766 29.9766 9.31157 25.8848C10.1255 21.793 12.1345 18.0345 15.0845 15.0845C18.0345 12.1345 21.793 10.1255 25.8848 9.31156C29.9766 8.49765 34.2179 8.91538 38.0722 10.5119C41.9266 12.1085 45.221 14.8121 47.5388 18.2809C49.8566 21.7498 51.0938 25.828 51.0938 30C51.0876 35.5925 48.8632 40.9542 44.9087 44.9087C40.9542 48.8632 35.5925 51.0875 30 51.0937ZM38.4938 30.8812C38.7571 31.1449 38.905 31.5023 38.905 31.875C38.905 32.2477 38.7571 32.6051 38.4938 32.8687L30.9938 40.3687C30.7301 40.6321 30.3727 40.78 30 40.78C29.6274 40.78 29.2699 40.6321 29.0063 40.3687L21.5063 32.8687C21.2579 32.6022 21.1226 32.2496 21.1291 31.8853C21.1355 31.521 21.2831 31.1734 21.5407 30.9157C21.7984 30.6581 22.146 30.5105 22.5103 30.504C22.8746 30.4976 23.2272 30.6328 23.4938 30.8812L28.5938 35.9789V20.625C28.5938 20.252 28.7419 19.8944 29.0056 19.6306C29.2694 19.3669 29.627 19.2187 30 19.2187C30.373 19.2187 30.7307 19.3669 30.9944 19.6306C31.2581 19.8944 31.4063 20.252 31.4063 20.625V35.9789L36.5063 30.8812C36.7699 30.6179 37.1274 30.47 37.5 30.47C37.8727 30.47 38.2301 30.6179 38.4938 30.8812Z" fill="white"/>
</svg>
