<svg width="111" height="11" viewBox="0 0 111 11" fill="none" xmlns="http://www.w3.org/2000/svg">
<path d="M90.2534 0.171912C88.332 0.632612 86.6689 2.27315 86.2419 4.14966C86.0397 5.02611 86.0959 6.54305 86.3543 7.32961C86.6577 8.22854 86.9274 8.68924 87.5679 9.35219C88.1971 10.0152 89.1185 10.5882 89.9275 10.8242C90.6804 11.0489 92.3659 11.0602 93.1412 10.8467C95.602 10.1949 97.2313 8.03751 97.2426 5.44187C97.2538 1.87987 93.8266 -0.70454 90.2534 0.171912ZM92.894 2.08213C93.1862 2.18326 93.6693 2.47541 93.9615 2.74509C95.4672 4.10471 95.5908 6.55429 94.2199 8.11617C94.0177 8.3409 93.5682 8.66676 93.2199 8.83531C92.6693 9.10499 92.4445 9.14994 91.6243 9.14994C90.8152 9.14994 90.5905 9.10499 90.1073 8.84655C89.3882 8.47574 88.8825 7.95886 88.5005 7.23972C88.2308 6.73407 88.1971 6.55429 88.1971 5.55423C88.1971 4.55418 88.2308 4.36315 88.5117 3.79009C89.096 2.59901 90.2197 1.90234 91.5793 1.90234C92.0175 1.90234 92.6019 1.981 92.894 2.08213Z" fill="white"/>
<path d="M90.2534 0.171912C88.332 0.632612 86.6689 2.27315 86.2419 4.14966C86.0397 5.02611 86.0959 6.54305 86.3543 7.32961C86.6577 8.22854 86.9274 8.68924 87.5679 9.35219C88.1971 10.0152 89.1185 10.5882 89.9275 10.8242C90.6804 11.0489 92.3659 11.0602 93.1412 10.8467C95.602 10.1949 97.2313 8.03751 97.2426 5.44187C97.2538 1.87987 93.8266 -0.70454 90.2534 0.171912ZM92.894 2.08213C93.1862 2.18326 93.6693 2.47541 93.9615 2.74509C95.4672 4.10471 95.5908 6.55429 94.2199 8.11617C94.0177 8.3409 93.5682 8.66676 93.2199 8.83531C92.6693 9.10499 92.4445 9.14994 91.6243 9.14994C90.8152 9.14994 90.5905 9.10499 90.1073 8.84655C89.3882 8.47574 88.8825 7.95886 88.5005 7.23972C88.2308 6.73407 88.1971 6.55429 88.1971 5.55423C88.1971 4.55418 88.2308 4.36315 88.5117 3.79009C89.096 2.59901 90.2197 1.90234 91.5793 1.90234C92.0175 1.90234 92.6019 1.981 92.894 2.08213Z" fill="white"/>
<path d="M0.0238878 5.21713C0.0126512 8.02627 0.00141465 10.4421 0.00141465 10.577C-0.00982193 10.8242 0.0238879 10.8354 0.945288 10.8354H1.9004L1.93411 7.19476L1.95658 3.54288L3.11395 5.39691C5.19272 8.70046 5.22643 8.75665 5.45116 8.75665C5.586 8.75665 5.85567 8.43079 6.26019 7.76783C6.84449 6.83519 8.88955 3.70019 8.99068 3.59906C9.02439 3.56535 9.03563 5.18342 9.03563 7.19476L9.02439 10.8354L9.9795 10.8691L10.9458 10.9028V5.49804V0.0932474L9.92332 0.126957L8.90079 0.160666L7.18159 2.99228L5.47363 5.8239L3.7432 2.96981L2.024 0.104484H1.03518H0.046361L0.0238878 5.21713Z" fill="white"/>
<path d="M0.0238878 5.21713C0.0126512 8.02627 0.00141465 10.4421 0.00141465 10.577C-0.00982193 10.8242 0.0238879 10.8354 0.945288 10.8354H1.9004L1.93411 7.19476L1.95658 3.54288L3.11395 5.39691C5.19272 8.70046 5.22643 8.75665 5.45116 8.75665C5.586 8.75665 5.85567 8.43079 6.26019 7.76783C6.84449 6.83519 8.88955 3.70019 8.99068 3.59906C9.02439 3.56535 9.03563 5.18342 9.03563 7.19476L9.02439 10.8354L9.9795 10.8691L10.9458 10.9028V5.49804V0.0932474L9.92332 0.126957L8.90079 0.160666L7.18159 2.99228L5.47363 5.8239L3.7432 2.96981L2.024 0.104484H1.03518H0.046361L0.0238878 5.21713Z" fill="white"/>
<path d="M20.2499 0.812393C20.0926 1.19444 19.07 3.57659 17.9801 6.11606C16.8901 8.64429 16.0024 10.7568 16.0024 10.8017C16.0024 10.8467 16.4407 10.8916 16.9913 10.8916H17.9688L18.4745 9.67805L18.9914 8.47574L21.4634 8.44203L23.9467 8.41955L24.2613 9.22859C24.4299 9.67805 24.6658 10.2399 24.7894 10.4646L24.9917 10.8916H26.003C26.5648 10.8916 27.0143 10.8691 27.0143 10.8242C27.0143 10.7568 23.295 2.03718 22.7556 0.85734L22.4185 0.104489H21.4859H20.5533L20.2499 0.812393ZM21.6207 2.70014C21.6207 2.76756 21.9803 3.66648 22.4073 4.70025C22.8455 5.74525 23.1939 6.6217 23.1939 6.66665C23.1939 6.70036 22.4073 6.73407 21.4522 6.73407C20.4971 6.73407 19.7105 6.7116 19.7105 6.68912C19.7105 6.66665 19.9465 6.09358 20.2274 5.43063C20.5083 4.75643 20.8904 3.81256 21.0814 3.34062C21.2724 2.85745 21.4747 2.49788 21.5196 2.53159C21.5758 2.5653 21.6207 2.64396 21.6207 2.70014Z" fill="white"/>
<path d="M20.2499 0.812393C20.0926 1.19444 19.07 3.57659 17.9801 6.11606C16.8901 8.64429 16.0024 10.7568 16.0024 10.8017C16.0024 10.8467 16.4407 10.8916 16.9913 10.8916H17.9688L18.4745 9.67805L18.9914 8.47574L21.4634 8.44203L23.9467 8.41955L24.2613 9.22859C24.4299 9.67805 24.6658 10.2399 24.7894 10.4646L24.9917 10.8916H26.003C26.5648 10.8916 27.0143 10.8691 27.0143 10.8242C27.0143 10.7568 23.295 2.03718 22.7556 0.85734L22.4185 0.104489H21.4859H20.5533L20.2499 0.812393ZM21.6207 2.70014C21.6207 2.76756 21.9803 3.66648 22.4073 4.70025C22.8455 5.74525 23.1939 6.6217 23.1939 6.66665C23.1939 6.70036 22.4073 6.73407 21.4522 6.73407C20.4971 6.73407 19.7105 6.7116 19.7105 6.68912C19.7105 6.66665 19.9465 6.09358 20.2274 5.43063C20.5083 4.75643 20.8904 3.81256 21.0814 3.34062C21.2724 2.85745 21.4747 2.49788 21.5196 2.53159C21.5758 2.5653 21.6207 2.64396 21.6207 2.70014Z" fill="white"/>
<path d="M30.7222 0.205614C30.7222 0.261797 31.3289 1.78997 32.0706 3.6103C32.8122 5.43062 33.7673 7.80154 34.1943 8.88025L34.9696 10.8354L35.9022 10.8691L36.8461 10.9028L38.2394 7.55433C39.0148 5.71153 40.0036 3.29567 40.453 2.18325L41.2621 0.160667L40.2508 0.126958C39.689 0.115722 39.1946 0.138194 39.1496 0.183141C39.1047 0.228087 38.4417 1.8911 37.6888 3.86874C35.891 8.54315 36.0595 8.17234 35.9247 7.90267C35.8573 7.7903 35.5539 7.02621 35.2393 6.22842C34.9246 5.41938 34.2617 3.72266 33.756 2.43046L32.8346 0.104485H31.7784C31.1941 0.104485 30.7222 0.149431 30.7222 0.205614Z" fill="white"/>
<path d="M30.7222 0.205614C30.7222 0.261797 31.3289 1.78997 32.0706 3.6103C32.8122 5.43062 33.7673 7.80154 34.1943 8.88025L34.9696 10.8354L35.9022 10.8691L36.8461 10.9028L38.2394 7.55433C39.0148 5.71153 40.0036 3.29567 40.453 2.18325L41.2621 0.160667L40.2508 0.126958C39.689 0.115722 39.1946 0.138194 39.1496 0.183141C39.1047 0.228087 38.4417 1.8911 37.6888 3.86874C35.891 8.54315 36.0595 8.17234 35.9247 7.90267C35.8573 7.7903 35.5539 7.02621 35.2393 6.22842C34.9246 5.41938 34.2617 3.72266 33.756 2.43046L32.8346 0.104485H31.7784C31.1941 0.104485 30.7222 0.149431 30.7222 0.205614Z" fill="white"/>
<path d="M45.723 0.239328C45.6893 0.317984 45.678 2.73385 45.6893 5.61041L45.723 10.8354L49.6895 10.8691L53.6448 10.8916V9.93649V8.97015L50.7008 8.98138L47.7456 8.99262L47.7119 7.64423L47.6781 6.28461H50.33H52.9706V5.44186V4.59912H50.33H47.6894V3.30691V2.01471H50.6109H53.5324V1.0596V0.104489H49.6558C46.6556 0.104489 45.7567 0.138199 45.723 0.239328Z" fill="white"/>
<path d="M45.723 0.239328C45.6893 0.317984 45.678 2.73385 45.6893 5.61041L45.723 10.8354L49.6895 10.8691L53.6448 10.8916V9.93649V8.97015L50.7008 8.98138L47.7456 8.99262L47.7119 7.64423L47.6781 6.28461H50.33H52.9706V5.44186V4.59912H50.33H47.6894V3.30691V2.01471H50.6109H53.5324V1.0596V0.104489H49.6558C46.6556 0.104489 45.7567 0.138199 45.723 0.239328Z" fill="white"/>
<path d="M58.4766 5.49804V10.9028L59.4654 10.8691L60.443 10.8354L60.4991 7.3296L60.5553 3.83503L61.1172 4.57664C61.4205 4.99239 62.6566 6.57675 63.8476 8.10493L66.0163 10.8916H66.8029H67.5782V5.49804V0.104485H66.6231H65.668L65.6455 3.65524L65.6118 7.206L63.1847 4.08223C61.8588 2.3518 60.6227 0.756207 60.4542 0.520238C60.1396 0.104485 60.1283 0.104485 59.3081 0.104485H58.4766V5.49804Z" fill="white"/>
<path d="M58.4766 5.49804V10.9028L59.4654 10.8691L60.443 10.8354L60.4991 7.3296L60.5553 3.83503L61.1172 4.57664C61.4205 4.99239 62.6566 6.57675 63.8476 8.10493L66.0163 10.8916H66.8029H67.5782V5.49804V0.104485H66.6231H65.668L65.6455 3.65524L65.6118 7.206L63.1847 4.08223C61.8588 2.3518 60.6227 0.756207 60.4542 0.520238C60.1396 0.104485 60.1283 0.104485 59.3081 0.104485H58.4766V5.49804Z" fill="white"/>
<path d="M72.9717 5.49803V10.9141L76.0393 10.8691C79.4215 10.8129 79.7923 10.7568 80.7923 10.0713C81.5452 9.56567 81.9048 8.84653 81.8935 7.85771C81.8823 6.73406 81.3542 5.90255 80.3204 5.41938L79.9721 5.25083L80.5564 4.66653C80.9946 4.23954 81.1631 3.95862 81.2755 3.54287C81.6126 2.19448 80.8822 0.891038 79.5001 0.374156C79.0731 0.205607 78.4551 0.171897 75.9831 0.126951L72.9717 0.0820045V5.49803ZM78.3765 2.0147C79.208 2.25066 79.5676 3.16083 79.1069 3.85749C78.7473 4.40809 78.3315 4.53169 76.6011 4.57663L74.9943 4.62158V3.26196V1.90233H76.4887C77.2978 1.90233 78.1517 1.95851 78.3765 2.0147ZM78.972 6.45314C79.2192 6.57674 79.5114 6.81271 79.635 6.97002C79.8934 7.3296 79.9159 7.99255 79.6687 8.36336C79.3091 8.91395 78.9383 9.00384 76.882 9.02632L74.9943 9.03755V7.58804V6.14976L76.7696 6.1947C78.2529 6.22841 78.6012 6.26212 78.972 6.45314Z" fill="white"/>
<path d="M72.9717 5.49803V10.9141L76.0393 10.8691C79.4215 10.8129 79.7923 10.7568 80.7923 10.0713C81.5452 9.56567 81.9048 8.84653 81.8935 7.85771C81.8823 6.73406 81.3542 5.90255 80.3204 5.41938L79.9721 5.25083L80.5564 4.66653C80.9946 4.23954 81.1631 3.95862 81.2755 3.54287C81.6126 2.19448 80.8822 0.891038 79.5001 0.374156C79.0731 0.205607 78.4551 0.171897 75.9831 0.126951L72.9717 0.0820045V5.49803ZM78.3765 2.0147C79.208 2.25066 79.5676 3.16083 79.1069 3.85749C78.7473 4.40809 78.3315 4.53169 76.6011 4.57663L74.9943 4.62158V3.26196V1.90233H76.4887C77.2978 1.90233 78.1517 1.95851 78.3765 2.0147ZM78.972 6.45314C79.2192 6.57674 79.5114 6.81271 79.635 6.97002C79.8934 7.3296 79.9159 7.99255 79.6687 8.36336C79.3091 8.91395 78.9383 9.00384 76.882 9.02632L74.9943 9.03755V7.58804V6.14976L76.7696 6.1947C78.2529 6.22841 78.6012 6.26212 78.972 6.45314Z" fill="white"/>
<path d="M101.659 1.02589C101.985 1.54277 102.76 2.70014 103.367 3.62154C104.367 5.12724 104.457 5.29579 104.344 5.55423C104.277 5.7003 103.457 6.94756 102.524 8.30719C101.602 9.67805 100.838 10.8129 100.838 10.8354C100.838 10.8691 101.333 10.8916 101.94 10.8916H103.052L104.4 8.86902L105.749 6.84643L107.03 8.83531L108.322 10.8354L109.412 10.8691C110.007 10.8804 110.502 10.8691 110.502 10.8467C110.502 10.768 108.884 8.22853 107.794 6.61047L106.906 5.28455L108.064 3.62154C109.535 1.5203 110.389 0.239328 110.389 0.160672C110.389 0.126963 109.895 0.104489 109.3 0.104489L108.198 0.115726L106.974 1.96976C106.299 2.98105 105.715 3.77885 105.681 3.72267C105.648 3.67772 105.12 2.83498 104.502 1.86863L103.4 0.104489H102.232H101.063L101.659 1.02589Z" fill="white"/>
<path d="M101.659 1.02589C101.985 1.54277 102.76 2.70014 103.367 3.62154C104.367 5.12724 104.457 5.29579 104.344 5.55423C104.277 5.7003 103.457 6.94756 102.524 8.30719C101.602 9.67805 100.838 10.8129 100.838 10.8354C100.838 10.8691 101.333 10.8916 101.94 10.8916H103.052L104.4 8.86902L105.749 6.84643L107.03 8.83531L108.322 10.8354L109.412 10.8691C110.007 10.8804 110.502 10.8691 110.502 10.8467C110.502 10.768 108.884 8.22853 107.794 6.61047L106.906 5.28455L108.064 3.62154C109.535 1.5203 110.389 0.239328 110.389 0.160672C110.389 0.126963 109.895 0.104489 109.3 0.104489L108.198 0.115726L106.974 1.96976C106.299 2.98105 105.715 3.77885 105.681 3.72267C105.648 3.67772 105.12 2.83498 104.502 1.86863L103.4 0.104489H102.232H101.063L101.659 1.02589Z" fill="white"/>
</svg>
