<svg width="18" height="18" viewBox="0 0 18 18" fill="none" xmlns="http://www.w3.org/2000/svg">
<path d="M17.4375 10.125H0.5625C0.253125 10.125 0 10.3781 0 10.6875V11.8125C0 12.1219 0.253125 12.375 0.5625 12.375H17.4375C17.7469 12.375 18 12.1219 18 11.8125V10.6875C18 10.3781 17.7469 10.125 17.4375 10.125ZM17.4375 5.625H0.5625C0.253125 5.625 0 5.87812 0 6.1875V7.3125C0 7.62188 0.253125 7.875 0.5625 7.875H17.4375C17.7469 7.875 18 7.62188 18 7.3125V6.1875C18 5.87812 17.7469 5.625 17.4375 5.625Z" fill="white"/>
</svg>
