<svg width="26" height="26" viewBox="0 0 26 26" fill="none" xmlns="http://www.w3.org/2000/svg">
<path fill-rule="evenodd" clip-rule="evenodd" d="M11.6131 12.4258C11.461 12.5782 11.3755 12.7847 11.3755 13C11.3755 13.2153 11.461 13.4218 11.6131 13.5742L19.7381 21.6992C19.8125 21.779 19.9022 21.843 20.0019 21.8874C20.1015 21.9318 20.2091 21.9557 20.3182 21.9576C20.4273 21.9596 20.5357 21.9395 20.6368 21.8986C20.738 21.8578 20.8299 21.7969 20.9071 21.7198C20.9842 21.6426 21.045 21.5507 21.0859 21.4496C21.1268 21.3484 21.1468 21.24 21.1449 21.1309C21.143 21.0218 21.1191 20.9142 21.0747 20.8146C21.0303 20.7149 20.9663 20.6252 20.8864 20.5508L13.3356 13L20.8864 5.44916C21.03 5.29514 21.1081 5.09142 21.1044 4.88093C21.1007 4.67044 21.0154 4.4696 20.8665 4.32074C20.7177 4.17188 20.5168 4.0866 20.3063 4.08289C20.0958 4.07918 19.8921 4.15731 19.7381 4.30083L11.6131 12.4258Z" fill="white"/>
<path fill-rule="evenodd" clip-rule="evenodd" d="M5.11311 12.4258C4.96095 12.5782 4.87549 12.7847 4.87549 13C4.87549 13.2153 4.96095 13.4218 5.11311 13.5742L13.2381 21.6992C13.3125 21.779 13.4022 21.843 13.5019 21.8874C13.6015 21.9318 13.7091 21.9557 13.8182 21.9576C13.9273 21.9596 14.0357 21.9395 14.1368 21.8986C14.238 21.8578 14.3299 21.7969 14.4071 21.7198C14.4842 21.6426 14.545 21.5507 14.5859 21.4496C14.6268 21.3484 14.6468 21.24 14.6449 21.1309C14.643 21.0218 14.6191 20.9142 14.5747 20.8146C14.5303 20.7149 14.4663 20.6252 14.3864 20.5508L6.83561 13L14.3864 5.44916C14.53 5.29514 14.6081 5.09142 14.6044 4.88093C14.6007 4.67044 14.5154 4.4696 14.3665 4.32074C14.2177 4.17188 14.0168 4.0866 13.8063 4.08289C13.5958 4.07918 13.3921 4.15731 13.2381 4.30083L5.11311 12.4258Z" fill="white"/>
</svg>
